<?xml version="1.0" standalone="no"?>
<!DOCTYPE svg PUBLIC "-//W3C//DTD SVG 20010904//EN"
 "http://www.w3.org/TR/2001/REC-SVG-20010904/DTD/svg10.dtd">
<svg version="1.0" xmlns="http://www.w3.org/2000/svg"
 width="500.000000pt" height="500.000000pt" viewBox="0 0 500.000000 500.000000"
 preserveAspectRatio="xMidYMid meet">

<g transform="translate(0.000000,500.000000) scale(0.100000,-0.100000)"
fill="#000000" stroke="none">
<path d="M1355 3229 c-27 -5 -59 -11 -70 -13 -11 -2 -26 -5 -33 -5 -7 -1 -10
-6 -6 -12 5 -8 -1 -10 -19 -7 -15 3 -24 2 -22 -2 3 -5 -2 -11 -11 -14 -10 -4
-13 -2 -8 7 4 6 -19 -10 -51 -38 -33 -27 -55 -43 -50 -35 5 8 -15 -9 -45 -39
-30 -30 -55 -60 -56 -65 0 -6 -2 -17 -2 -24 -1 -7 -7 -10 -13 -6 -8 5 -10 -1
-7 -19 3 -17 0 -28 -9 -31 -8 -3 -13 -11 -12 -18 1 -7 1 -24 0 -38 -1 -21 -3
-22 -12 -10 -9 12 -10 12 -5 -3 3 -11 3 -24 -1 -30 -7 -11 -7 -46 1 -127 4
-45 43 -140 58 -140 4 0 8 -7 8 -15 0 -8 5 -15 11 -15 6 0 8 -7 5 -16 -3 -8
-2 -13 3 -10 4 3 15 -12 24 -34 10 -27 23 -41 41 -46 16 -4 26 -13 26 -24 0
-10 8 -21 19 -25 10 -3 33 -19 51 -36 24 -24 39 -30 61 -27 21 3 30 0 35 -14
3 -10 9 -16 14 -13 13 8 21 -25 14 -60 -4 -23 -13 -35 -27 -39 -23 -6 -99 -67
-126 -101 -38 -46 -84 -83 -119 -93 -21 -6 -53 -23 -72 -37 -18 -14 -37 -25
-41 -25 -11 0 -84 -74 -81 -82 1 -5 -3 -8 -9 -8 -5 0 -7 -4 -4 -10 3 -5 1 -10
-5 -10 -6 0 -8 -4 -5 -10 3 -5 1 -10 -5 -10 -6 0 -9 -4 -6 -9 4 -5 1 -11 -4
-13 -6 -2 -13 -31 -15 -66 -2 -34 -7 -67 -10 -72 -4 -6 0 -26 9 -43 15 -34 75
-68 122 -71 13 0 24 -5 24 -10 0 -4 11 -6 25 -4 14 3 25 1 25 -5 0 -5 11 -7
25 -5 14 3 28 2 30 -3 3 -4 21 -6 40 -4 19 2 35 0 35 -4 0 -12 339 -4 426 10
43 6 98 12 121 11 l42 -1 5 42 c3 23 8 116 11 207 3 91 8 189 11 218 l7 52 65
0 65 0 -6 -87 c-16 -215 -20 -380 -9 -399 9 -16 11 -14 16 16 3 19 10 116 16
215 6 99 13 195 17 213 5 32 6 32 61 32 70 0 83 -12 118 -107 32 -88 40 -81
45 41 5 112 -5 118 -225 135 -106 9 -109 10 -145 45 -21 20 -40 33 -44 30 -4
-4 -7 -2 -7 4 0 7 -6 12 -14 12 -8 0 -17 7 -20 16 -4 9 -9 14 -13 11 -3 -4
-12 1 -18 10 -8 10 -26 17 -48 17 l-36 0 37 24 c46 31 65 48 34 33 -21 -11
-21 -10 5 27 22 32 29 36 35 23 5 -13 7 -12 7 5 1 11 12 27 26 34 13 7 27 21
30 29 3 9 18 25 35 34 16 10 30 24 30 30 0 7 12 23 25 36 14 13 25 30 25 39 0
8 7 23 15 32 38 42 46 272 11 340 -9 18 -16 38 -16 43 0 16 -70 117 -81 117
-5 0 -14 11 -19 24 -10 28 -108 96 -142 100 -13 1 -28 5 -34 8 -10 7 -59 15
-124 22 -19 2 -57 0 -85 -5z m-105 -700 c0 -11 5 -29 10 -40 6 -11 7 -19 1
-19 -5 0 -14 14 -20 31 -14 39 -14 49 -1 49 6 0 10 -9 10 -21z m68 15 c23 -7
30 -28 12 -39 -16 -10 -49 4 -60 26 -9 15 -7 19 7 19 10 0 28 -3 41 -6z m282
-14 c-11 -20 -60 -29 -60 -10 0 12 30 29 53 30 15 0 16 -3 7 -20z m65 -7 c-8
-35 -13 -40 -49 -49 -29 -7 -29 -7 -13 17 10 13 17 31 17 41 0 13 8 18 26 18
24 0 25 -3 19 -27z m-278 -1 c18 -11 -12 -52 -37 -52 -16 0 -17 3 -7 30 12 31
22 36 44 22z m203 -497 c19 -2 80 -28 80 -33 0 -4 -33 -113 -73 -242 l-73
-235 -59 -3 c-32 -2 -61 1 -66 5 -6 7 -109 471 -109 494 0 5 26 9 59 9 l59 0
27 -117 c15 -65 30 -121 34 -125 3 -4 22 43 40 105 48 158 49 159 63 150 7 -4
15 -8 18 -8z"/>
<path d="M3728 3183 c6 -2 18 -2 25 0 6 3 1 5 -13 5 -14 0 -19 -2 -12 -5z"/>
<path d="M3558 3173 c7 -3 16 -2 19 1 4 3 -2 6 -13 5 -11 0 -14 -3 -6 -6z"/>
<path d="M3496 3158 c-21 -8 -25 -13 -15 -19 10 -6 4 -9 -19 -9 -46 0 -94 -22
-124 -58 -14 -17 -56 -88 -93 -159 l-68 -128 11 -59 c6 -32 9 -64 5 -69 -3 -6
-1 -7 5 -3 16 9 15 7 -8 -56 -10 -29 -24 -73 -30 -97 -6 -23 -14 -41 -17 -37
-7 6 -33 -19 -33 -33 0 -5 -27 -29 -60 -52 -33 -23 -78 -66 -101 -95 -23 -30
-45 -52 -49 -49 -5 3 -12 0 -16 -6 -5 -8 -3 -9 6 -4 9 6 12 4 8 -6 -37 -89
-52 -118 -58 -114 -4 3 -11 -6 -14 -19 -3 -13 -9 -31 -12 -40 -5 -13 3 -16 49
-16 55 0 72 -12 62 -42 -2 -7 -6 -81 -10 -165 l-6 -152 88 -3 88 -3 5 -70 c8
-106 18 -47 25 155 8 219 15 274 35 277 70 9 92 15 80 23 -30 19 102 109 161
110 l25 0 -9 -66 c-6 -42 -6 -69 0 -73 5 -3 24 -32 42 -64 l33 -59 39 58 c39
59 44 80 11 51 -25 -23 -62 -21 -95 6 -26 22 -27 26 -21 81 4 35 12 60 21 63
20 8 94 -23 127 -53 15 -15 34 -42 42 -60 7 -17 25 -41 39 -52 14 -11 25 -23
25 -26 0 -4 -28 -48 -61 -98 l-62 -91 49 -121 c27 -67 48 -127 48 -133 -2 -14
22 -18 28 -5 4 12 162 41 166 31 6 -14 32 -10 32 4 0 7 36 25 85 41 56 18 90
35 99 49 14 21 29 112 41 250 4 37 11 67 17 67 7 0 7 4 1 13 -6 6 -13 45 -16
85 -7 87 -42 170 -95 226 -22 23 -30 36 -19 33 11 -4 16 -3 12 3 -3 6 -13 10
-20 10 -12 0 -40 48 -49 85 -2 6 -6 18 -11 28 -4 9 -4 29 0 44 5 21 8 24 16
12 7 -11 9 -11 9 4 0 10 7 20 15 23 8 4 12 10 9 15 -3 5 2 9 11 9 9 0 27 11
40 25 22 21 25 33 25 95 0 92 -24 208 -60 287 -29 63 -30 78 -3 46 10 -13 12
-14 6 -2 -4 9 -36 41 -71 72 -104 92 -210 117 -345 82 -71 -18 -79 -18 -47 0
29 17 18 18 -24 3z m-63 -270 l6 -38 -42 -1 -42 -1 50 -14 c28 -8 58 -19 67
-24 15 -9 17 -6 12 23 l-5 32 14 -31 c8 -17 26 -40 40 -51 15 -11 23 -23 20
-27 -3 -3 -1 -6 5 -6 7 0 9 -12 5 -33 -6 -41 16 -67 58 -67 17 0 28 4 25 9
-10 15 20 43 47 44 25 2 27 5 22 37 -5 32 -4 33 5 10 6 -14 27 -40 46 -58 l36
-33 -21 -34 -20 -35 24 0 c16 0 25 -6 25 -16 0 -12 -8 -15 -34 -13 -28 3 -39
-3 -62 -31 -16 -19 -24 -31 -17 -27 7 4 14 -1 18 -13 3 -11 18 -28 31 -39 l26
-20 -31 -45 c-36 -52 -37 -52 -153 -65 -48 -6 -96 -15 -107 -20 -17 -9 -23 -5
-45 34 -32 54 -43 100 -25 110 6 5 28 8 48 7 l36 -1 -42 17 c-59 24 -143 121
-143 166 0 46 19 98 33 89 7 -4 6 1 -2 10 -19 23 0 67 29 67 17 0 18 -4 10
-25 -14 -37 3 -75 34 -75 25 0 36 16 36 55 0 32 -47 68 -82 63 -25 -4 -28 -1
-28 23 0 18 6 30 18 33 11 4 29 17 42 31 13 14 24 24 25 22 1 -1 5 -19 8 -39z
m160 -98 c3 -11 1 -20 -4 -20 -5 0 -9 9 -9 20 0 11 2 20 4 20 2 0 6 -9 9 -20z
m-153 -37 c0 -14 -10 -16 -34 -7 -16 6 -22 35 -9 47 9 9 43 -22 43 -40z m191
-19 c25 -23 24 -34 -5 -34 -24 0 -38 12 -49 42 -8 21 27 16 54 -8z"/>
<path d="M3459 2571 c12 -8 51 -4 51 5 0 2 -15 4 -32 4 -23 0 -29 -3 -19 -9z"/>
<path d="M3921 2464 c0 -11 3 -14 6 -6 3 7 2 16 -1 19 -3 4 -6 -2 -5 -13z"/>
<path d="M3263 2030 c3 -9 1 -56 -4 -105 -14 -161 -14 -399 0 -390 5 3 40 59
76 125 l66 120 -50 90 c-28 49 -51 92 -51 95 0 3 21 18 48 35 54 34 52 36 -9
15 -42 -15 -44 -15 -62 7 -10 13 -17 16 -14 8z"/>
<path d="M1730 1983 c1 -27 1 -27 15 -9 14 19 12 36 -6 36 -5 0 -9 -12 -9 -27z"/>
<path d="M2406 1907 c-14 -239 -15 -314 -7 -347 7 -33 8 -31 14 30 3 36 9 119
12 185 3 66 8 143 12 171 4 40 2 52 -10 57 -13 5 -16 -10 -21 -96z"/>
<path d="M3144 1996 c-3 -8 -4 -23 -2 -32 2 -14 6 -12 15 9 8 16 9 29 3 32 -6
4 -13 -1 -16 -9z"/>
<path d="M2290 1978 c0 -19 2 -20 10 -8 13 19 13 30 0 30 -5 0 -10 -10 -10
-22z"/>
<path d="M2759 1955 l-4 -50 -45 -6 c-25 -4 -71 -10 -102 -14 l-58 -6 0 -35 0
-34 53 1 c60 1 114 17 60 18 -34 1 -51 17 -35 33 9 9 133 40 139 34 1 -1 -3
-21 -8 -45 -7 -30 -6 -48 1 -55 5 -5 11 -37 11 -70 1 -34 3 -54 5 -46 6 26 22
305 17 310 -2 2 -8 -2 -13 -9 -6 -11 -9 -10 -12 5 -3 10 -7 -3 -9 -31z"/>
<path d="M2226 1922 c-3 -37 -6 -137 -6 -223 0 -128 3 -156 14 -156 16 0 22
51 32 277 5 137 5 146 -14 157 -18 11 -20 8 -26 -55z"/>
<path d="M854 1898 l-19 -23 23 19 c21 18 27 26 19 26 -2 0 -12 -10 -23 -22z"/>
<path d="M3142 1900 c0 -14 2 -19 5 -12 2 6 2 18 0 25 -3 6 -5 1 -5 -13z"/>
<path d="M1731 1894 c0 -11 3 -14 6 -6 3 7 2 16 -1 19 -3 4 -6 -2 -5 -13z"/>
<path d="M2723 1755 c0 -27 2 -38 4 -22 2 15 2 37 0 50 -2 12 -4 0 -4 -28z"/>
<path d="M1991 1658 c1 -62 4 -103 6 -91 7 37 29 47 47 21 13 -18 16 -19 16
-6 0 19 -59 188 -66 188 -2 0 -3 -51 -3 -112z"/>
<path d="M2568 1673 c-12 -3 -18 -14 -17 -31 1 -19 3 -21 6 -9 3 10 19 25 36
32 31 14 15 19 -25 8z"/>
<path d="M3437 1585 c-26 -53 -26 -55 -6 -44 12 6 35 8 51 5 27 -5 29 -4 22
17 -7 24 -33 77 -37 77 -2 0 -15 -25 -30 -55z"/>
<path d="M3748 1523 c7 -3 16 -2 19 1 4 3 -2 6 -13 5 -11 0 -14 -3 -6 -6z"/>
<path d="M3413 1513 c9 -2 23 -2 30 0 6 3 -1 5 -18 5 -16 0 -22 -2 -12 -5z"/>
</g>
</svg>
